/vscmnt/brussel_pixiu_data/_data_brussel/112/vsc11236/PredSimResults/SUBJ04mtu3D/worker6.mot
version=1
nRows=9
nColumns=50
inDegrees=yes
endheader
                time	         pelvis_tilt	         pelvis_list	     pelvis_rotation	           pelvis_tx	           pelvis_ty	           pelvis_tz	       hip_flexion_r	     hip_adduction_r	      hip_rotation_r	        knee_angle_r	       ankle_angle_r	         mtp_angle_r	       hip_flexion_l	     hip_adduction_l	      hip_rotation_l	        knee_angle_l	       ankle_angle_l	         mtp_angle_l	    lumbar_extension	      lumbar_bending	     lumbar_rotation	 ercspn_r/activation	 intobl_r/activation	 extobl_r/activation	    abd_r/activation	    add_r/activation	hamstrings_r/activation	bifemsh_r/activation	glut_max_r/activation	iliopsoas_r/activation	rect_fem_r/activation	  vasti_r/activation	gastroc_r/activation	 soleus_r/activation	tib_ant_r/activation	 ercspn_l/activation	 intobl_l/activation	 extobl_l/activation	    abd_l/activation	    add_l/activation	hamstrings_l/activation	bifemsh_l/activation	glut_max_l/activation	iliopsoas_l/activation	rect_fem_l/activation	  vasti_l/activation	gastroc_l/activation	 soleus_l/activation	tib_ant_l/activation	
          0.00000000	         -3.03689478	          1.40582051	          7.82875943	          0.00000000	          0.87988911	         -0.01245607	         29.11578422	         -4.15804123	         -8.30228520	         -7.76730981	          4.90567266	          0.23593729	        -13.29802462	          0.72702849	         -9.06616321	         -6.48602431	         10.02688982	         24.37259650	        -14.06189100	         -4.53916749	         -7.08274468	          0.02095419	          0.22360271	          0.02236281	          0.01000101	          0.22568276	          0.09121751	          0.14355356	          0.01618297	          0.16209056	          0.01544218	          0.01000137	          0.02285343	          0.01719178	          0.28547329	          0.01555359	          0.01000132	          0.01000313	          0.05252862	          0.01002170	          0.02326482	          0.10093410	          0.01810689	          0.01013665	          0.01000862	          0.01000273	          0.37060769	          0.18624751	          0.01000088	
          0.01367644	         -3.13242475	          1.45470725	          7.61081660	          0.01629957	          0.87777273	         -0.01180889	         29.10083949	         -4.12089001	         -8.56247671	         -9.42932163	          4.57782608	          0.22481134	        -14.02327865	          0.65717327	         -9.72986497	         -6.98227127	          9.49445896	         25.85919955	        -13.57558940	         -3.98904399	         -7.17987365	          0.01706554	          0.21865830	          0.01821180	          0.02941563	          0.18379546	          0.08746299	          0.11691304	          0.04483172	          0.13200217	          0.01257621	          0.01000050	          0.01861171	          0.01400090	          0.32255125	          0.02343544	          0.01000099	          0.01001642	          0.04277792	          0.01003212	          0.01896692	          0.08220031	          0.01474611	          0.01000479	          0.01000264	          0.01001710	          0.34991836	          0.17947766	          0.01000052	
          0.02735288	         -3.21417572	          1.44918844	          7.34151378	          0.03289290	          0.87599929	         -0.01107737	         29.00164733	         -4.05113660	         -8.81471234	        -10.91316568	          4.08113504	          0.21025932	        -14.60397499	          0.50767721	        -10.42602559	         -7.78686053	          8.86212199	         27.39095902	        -13.06657396	         -3.35337888	         -7.24846724	          0.03799491	          0.17807013	          0.01483136	          0.05846541	          0.20595554	          0.07878407	          0.09521271	          0.09731775	          0.10749902	          0.01024357	          0.01472097	          0.01515749	          0.01140548	          0.34256298	          0.05628808	          0.01000035	          0.01000118	          0.03483721	          0.01000557	          0.01545525	          0.06694368	          0.01200907	          0.01852399	          0.01504888	          0.01000180	          0.32244922	          0.16508955	          0.01000090	
          0.04102932	         -3.28100987	          1.41354722	          7.01836939	          0.04959531	          0.87476633	         -0.01022334	         28.89147823	         -3.96186069	         -9.14822216	        -12.40219257	          3.62007801	          0.19197533	        -14.95460445	          0.28673517	        -11.15994604	         -9.03412442	          8.09551690	         28.96612326	        -12.56199803	         -2.66846787	         -7.28478864	          0.03421016	          0.14501547	          0.01207861	          0.08229787	          0.22253879	          0.07387160	          0.07754108	          0.08022447	          0.08754434	          0.01000422	          0.05973053	          0.01234460	          0.01000226	          0.37177917	          0.06506077	          0.01000049	          0.01000134	          0.02837052	          0.01000864	          0.01261573	          0.05451844	          0.01000125	          0.01508826	          0.01227027	          0.01001817	          0.28877386	          0.15204455	          0.01000065	
          0.05470576	         -3.33265624	          1.34055290	          6.65816100	          0.06632350	          0.87417661	         -0.00924348	         28.70949132	         -3.83463466	         -9.53027453	        -13.80726911	          3.30322180	          0.17071099	        -15.01669614	         -0.03501814	        -11.92002875	        -10.81217789	          7.17789596	         30.55182804	        -12.07091456	         -1.93354551	         -7.29186799	          0.02939577	          0.11809661	          0.01000130	          0.10672559	          0.20925727	          0.07438140	          0.06315049	          0.07450384	          0.07129379	          0.01000458	          0.09985610	          0.01005518	          0.01000545	          0.37810264	          0.08690307	          0.01000064	          0.01000122	          0.02310422	          0.01000867	          0.01046562	          0.04439952	          0.01000131	          0.01228977	          0.01000834	          0.02456751	          0.23517026	          0.12573550	          0.01000064	
          0.06838220	         -3.36976493	          1.22722907	          6.27582217	          0.08300544	          0.87428527	         -0.00814721	         28.39981748	         -3.64237477	         -9.87712644	        -15.03114892	          3.16769088	          0.15359691	        -14.79068557	         -0.47172890	        -12.69706813	        -13.09958879	          6.09572572	         32.02261203	        -11.59937994	         -1.15153253	         -7.27444582	          0.02394619	          0.09617463	          0.01000364	          0.13121278	          0.19848727	          0.07247620	          0.05143181	          0.06377329	          0.05805980	          0.01000324	          0.12607918	          0.01002614	          0.01001513	          0.37197093	          0.10365815	          0.01000234	          0.01000142	          0.01881549	          0.01006848	          0.06447643	          0.03615890	          0.01365686	          0.01001136	          0.01000346	          0.02504306	          0.19151615	          0.10239591	          0.01000050	
          0.08205865	         -3.39314051	          1.07425580	          5.88820469	          0.09952773	          0.87508859	         -0.00695405	         27.95060712	         -3.36933066	        -10.11125374	        -16.03366357	          3.17702196	          0.14214187	        -14.26155049	         -1.03696108	        -13.47850785	        -15.90483088	          4.86200590	         33.22358387	        -11.15843406	         -0.32786579	         -7.23805005	          0.02014023	          0.07832199	          0.01000560	          0.14258452	          0.19267591	          0.07329034	          0.04188876	          0.05194486	          0.04728241	          0.01000275	          0.14758995	          0.01001948	          0.01004917	          0.36110504	          0.10517916	          0.03296998	          0.01000137	          0.01532287	          0.01235168	          0.06763956	          0.02944836	          0.01113656	          0.01000440	          0.01000262	          0.02039473	          0.15596539	          0.08338850	          0.01000046	
          0.09573509	         -3.40349926	          0.90398905	          5.50741728	          0.11579101	          0.87650472	         -0.00567063	         27.35249256	         -3.03512189	        -10.22919488	        -16.78308000	          3.29229465	          0.13776699	        -13.40751849	         -1.72482671	        -14.24446239	        -19.24593611	          3.48486072	         33.99174407	        -10.76132649	          0.50401632	         -7.17850032	          0.01838020	          0.06378333	          0.01000558	          0.14951194	          0.18026835	          0.07536349	          0.03411726	          0.04231034	          0.03850559	          0.01000227	          0.16083603	          0.01000363	          0.01000217	          0.34258288	          0.10547293	          0.05366585	          0.01000141	          0.01247859	          0.01010721	          0.07686043	          0.02398522	          0.01000161	          0.01000566	          0.01000162	          0.01660904	          0.12701384	          0.06790935	          0.01000091	
          0.10941153	         -3.40106470	          0.74621010	          5.14027628	          0.13172663	          0.87842911	         -0.00430925	         26.60621153	         -2.67688098	        -10.26045696	        -17.27851418	          3.52147063	          0.14692658	        -12.22311616	         -2.52081580	        -15.00051882	        -23.13318782	          2.06994161	         33.98502718	        -10.41783375	          1.30367285	         -7.08840543	          0.01497348	          0.05194346	          0.01000501	          0.15504350	          0.17169104	          0.07783430	          0.02778741	          0.03733745	          0.03135800	          0.01000214	          0.16907282	          0.01001172	          0.01001074	          0.31559025	          0.10381139	          0.05950941	          0.01000186	          0.01016234	          0.05060491	          0.07013499	          0.01954320	          0.01000130	          0.01000589	          0.01000132	          0.01352606	          0.10343653	          0.05530359	          0.01519965	
